Coordinates
version=1
nRows=5
nColumns=40
inDegrees=yes

Units are S.I. units (second, meters, Newtons, ...)
If the header above contains a line with 'inDegrees', this indicates whether rotational values are in degrees (yes) or radians (no).

endheader
time	pelvis_tilt	pelvis_list	pelvis_rotation	pelvis_tx	pelvis_ty	pelvis_tz	hip_flexion_r	hip_adduction_r	hip_rotation_r	knee_angle_r	knee_angle_r_beta	ankle_angle_r	subtalar_angle_r	mtp_angle_r	hip_flexion_l	hip_adduction_l	hip_rotation_l	knee_angle_l	knee_angle_l_beta	ankle_angle_l	subtalar_angle_l	mtp_angle_l	lumbar_extension	lumbar_bending	lumbar_rotation	arm_flex_r	arm_add_r	arm_rot_r	elbow_flex_r	pro_sup_r	wrist_flex_r	wrist_dev_r	arm_flex_l	arm_add_l	arm_rot_l	elbow_flex_l	pro_sup_l	wrist_flex_l	wrist_dev_l
      5.87500000	      4.43442437	      0.79399806	      1.28477332	     -0.43162518	      0.81997980	     -0.73747270	     45.29790651	     -1.84793733	    -10.92375618	     89.31108074	      1.55877242	     27.97188084	      0.00000000	      0.00000000	     58.71614816	     -3.07323364	     -3.98582723	      7.96733711	      0.13905627	     -8.65738037	      0.00000000	      0.00000000	    -26.11284493	      4.27048456	      6.56598461	     89.96927658	    -12.43358999	     14.61935998	     45.32030065	     63.40920538	      0.00000000	      0.00000000	     89.96826586	     -7.58528437	     15.30874057	     46.40489693	     68.01162634	      0.00000000	      0.00000000
      5.88000000	      4.40774148	      0.80192811	      1.26967551	     -0.43195289	      0.82029937	     -0.73745209	     45.28813382	     -1.84880536	    -10.92662163	     89.16297930	      1.55618756	     27.88184401	      0.00000000	      0.00000000	     58.74262946	     -3.05845631	     -3.97342359	      8.02541427	      0.14006990	     -8.67192943	      0.00000000	      0.00000000	    -26.06998507	      4.23922260	      6.59149371	     89.96930652	    -12.44392754	     14.63233117	     45.18476551	     63.44346030	      0.00000000	      0.00000000	     89.96825224	     -7.49797412	     15.30134245	     46.36463484	     68.06587148	      0.00000000	      0.00000000
      5.88500000	      4.40044164	      0.79543445	      1.25669955	     -0.43230015	      0.82050019	     -0.73751591	     45.31403251	     -1.84991855	    -10.93116380	     89.14665197	      1.55590259	     27.87167417	      0.00000000	      0.00000000	     58.74037188	     -3.03778897	     -3.97331736	      8.03368896	      0.14021432	     -8.67129712	      0.00000000	      0.00000000	    -26.06844672	      4.24276548	      6.59803760	     89.96932589	    -12.44394780	     14.62582910	     45.20023527	     63.44976803	      0.00000000	      0.00000000	     89.96826662	     -7.48289400	     15.28987725	     46.37990142	     68.07469530	      0.00000000	      0.00000000
      5.89000000	      4.39410899	      0.80051041	      1.24174474	     -0.43268790	      0.82070037	     -0.73756501	     45.33714683	     -1.85056540	    -10.93186733	     89.11488400	      1.55534814	     27.85937790	      0.00000000	      0.00000000	     58.73482830	     -3.01986746	     -3.96945632	      8.04417733	      0.14039738	     -8.66985485	      0.00000000	      0.00000000	    -26.06273460	      4.24341596	      6.60513142	     89.96928623	    -12.43731876	     14.62226983	     45.21487837	     63.45608916	      0.00000000	      0.00000000	     89.96826365	     -7.46166276	     15.27970947	     46.39726236	     68.08306502	      0.00000000	      0.00000000
      5.89500000	      4.38869698	      0.80926136	      1.21812868	     -0.43307252	      0.82098491	     -0.73761102	     45.34095459	     -1.85751936	    -10.92448039	     89.05793928	      1.55435427	     27.83251788	      0.00000000	      0.00000000	     58.73020228	     -3.00057212	     -3.95906142	      8.06836630	      0.14081956	     -8.67955917	      0.00000000	      0.00000000	    -26.05681006	      4.23081559	      6.62536581	     89.96932104	    -12.42984238	     14.62095094	     45.22056943	     63.46678913	      0.00000000	      0.00000000	     89.96830379	     -7.43245042	     15.26837964	     46.41045520	     68.09699193	      0.00000000	      0.00000000
